# Blender v2.79 (sub 0) OBJ File: ''
# www.blender.org
mtllib 5cubes.mtl
o Cube.000_Cube.002
v 3.255722 -0.568975 -6.638342
v 3.255722 -0.568975 -4.638342
v 1.255721 -0.568975 -4.638342
v 1.255722 -0.568975 -6.638342
v 3.255722 1.431025 -6.638341
v 3.255721 1.431025 -4.638341
v 1.255721 1.431025 -4.638342
v 1.255722 1.431025 -6.638342
v 2.194378 1.403385 -6.666514
v 2.194378 1.403385 -4.666514
v 0.194378 1.403385 -4.666514
v 0.194379 1.403385 -6.666514
v 2.194379 3.403385 -6.666513
v 2.194378 3.403385 -4.666513
v 0.194378 3.403385 -4.666514
v 0.194379 3.403385 -6.666514
vn 0.0000 -1.0000 0.0000
vn 0.0000 1.0000 -0.0000
vn 1.0000 -0.0000 0.0000
vn 0.0000 -0.0000 1.0000
vn -1.0000 -0.0000 -0.0000
vn 0.0000 0.0000 -1.0000
g Cube.000_Cube.002_Material
usemtl Material
s off
f 2//1 4//1 1//1
f 8//2 6//2 5//2
f 5//3 2//3 1//3
f 6//4 3//4 2//4
f 3//5 8//5 4//5
f 1//6 8//6 5//6
f 10//1 12//1 9//1
f 16//2 14//2 13//2
f 13//3 10//3 9//3
f 14//4 11//4 10//4
f 15//5 12//5 11//5
f 9//6 16//6 13//6
f 2//1 3//1 4//1
f 8//2 7//2 6//2
f 5//3 6//3 2//3
f 6//4 7//4 3//4
f 3//5 7//5 8//5
f 1//6 4//6 8//6
f 10//1 11//1 12//1
f 16//2 15//2 14//2
f 13//3 14//3 10//3
f 14//4 15//4 11//4
f 15//5 16//5 12//5
f 9//6 12//6 16//6
o Cube.002_Cube.001
v -0.060011 -1.366681 1.851872
v -0.060011 -1.366681 3.851872
v -2.060011 -1.366681 3.851872
v -2.060011 -1.366681 1.851872
v -0.060011 0.633319 1.851873
v -0.060012 0.633319 3.851873
v -2.060011 0.633319 3.851872
v -2.060011 0.633319 1.851872
v -1.121354 0.605680 1.823700
v -1.121354 0.605680 3.823700
v -3.121354 0.605680 3.823700
v -3.121354 0.605680 1.823700
v -1.121354 2.605680 1.823700
v -1.121355 2.605680 3.823700
v -3.121355 2.605680 3.823699
v -3.121354 2.605680 1.823700
vn 0.0000 -1.0000 0.0000
vn 0.0000 1.0000 0.0000
vn 1.0000 -0.0000 0.0000
vn 0.0000 -0.0000 1.0000
vn -1.0000 -0.0000 -0.0000
vn 0.0000 0.0000 -1.0000
g Cube.002_Cube.001_Material
usemtl Material
s off
f 18//7 20//7 17//7
f 24//8 22//8 21//8
f 21//9 18//9 17//9
f 22//10 19//10 18//10
f 19//11 24//11 20//11
f 17//12 24//12 21//12
f 26//7 28//7 25//7
f 32//8 30//8 29//8
f 29//9 26//9 25//9
f 30//10 27//10 26//10
f 31//11 28//11 27//11
f 25//12 32//12 29//12
f 18//7 19//7 20//7
f 24//8 23//8 22//8
f 21//9 22//9 18//9
f 22//10 23//10 19//10
f 19//11 23//11 24//11
f 17//12 20//12 24//12
f 26//7 27//7 28//7
f 32//8 31//8 30//8
f 29//9 30//9 26//9
f 30//10 31//10 27//10
f 31//11 32//11 28//11
f 25//12 28//12 32//12
o Cube.001_Cube
v 1.837136 -0.375502 -3.665056
v 1.837136 -0.375502 -1.665056
v -0.162864 -0.375502 -1.665056
v -0.162863 -0.375502 -3.665056
v 1.837137 1.624498 -3.665055
v 1.837136 1.624498 -1.665055
v -0.162864 1.624498 -1.665056
v -0.162864 1.624498 -3.665056
vn 0.0000 -1.0000 0.0000
vn 0.0000 1.0000 0.0000
vn 1.0000 -0.0000 0.0000
vn 0.0000 -0.0000 1.0000
vn -1.0000 -0.0000 -0.0000
vn 0.0000 0.0000 -1.0000
g Cube.001_Cube_Material
usemtl Material
s off
f 34//13 36//13 33//13
f 40//14 38//14 37//14
f 37//15 34//15 33//15
f 38//16 35//16 34//16
f 35//17 40//17 36//17
f 33//18 40//18 37//18
f 34//13 35//13 36//13
f 40//14 39//14 38//14
f 37//15 38//15 34//15
f 38//16 39//16 35//16
f 35//17 39//17 40//17
f 33//18 36//18 40//18
