# Blender v2.79 (sub 0) OBJ File: ''
# www.blender.org
mtllib cone_triangulte_faces.mtl
o Cone
v -0.011049 -0.007745 -0.997741
v 0.696058 -0.007745 -0.704848
v 0.988951 -0.007745 0.002259
v 0.696058 -0.007745 0.709366
v -0.011049 -0.007745 1.002259
v -0.718156 -0.007745 0.709366
v -1.011049 -0.007745 0.002259
v -0.718156 -0.007745 -0.704848
v -0.011049 1.992255 0.002259
vt 0.000000 0.000000
vt 1.000000 0.000000
vt 1.000000 1.000000
vt 0.000000 0.000000
vt 1.000000 1.000000
vt 0.000000 0.000000
vt 1.000000 1.000000
vt 0.000000 0.000000
vt 1.000000 1.000000
vt 0.000000 0.000000
vt 1.000000 1.000000
vt 0.000000 0.000000
vt 1.000000 1.000000
vt 0.000000 0.000000
vt 1.000000 1.000000
vt 0.000000 0.000000
vt 1.000000 1.000000
vt 0.853553 0.146447
vt 0.146447 0.146447
vt 0.146447 0.853553
vt 0.500000 1.000000
vt 0.853553 0.853553
vt 1.000000 0.500000
vt 0.500000 0.000000
vt 0.000000 0.500000
vn 0.3474 0.4194 -0.8387
vn 0.8387 0.4194 -0.3474
vn 0.8387 0.4194 0.3474
vn 0.3474 0.4194 0.8387
vn -0.3474 0.4194 0.8387
vn -0.8387 0.4194 0.3474
vn -0.8387 0.4194 -0.3474
vn -0.3474 0.4194 -0.8387
vn 0.0000 -1.0000 0.0000
usemtl None
s off
f 1/1/1 9/2/1 2/3/1
f 2/4/2 9/2/2 3/5/2
f 3/6/3 9/2/3 4/7/3
f 4/8/4 9/2/4 5/9/4
f 5/10/5 9/2/5 6/11/5
f 6/12/6 9/2/6 7/13/6
f 7/14/7 9/2/7 8/15/7
f 8/16/8 9/2/8 1/17/8
f 4/18/9 6/19/9 8/20/9
f 8/20/9 1/21/9 2/22/9
f 2/22/9 3/23/9 4/18/9
f 4/18/9 5/24/9 6/19/9
f 6/19/9 7/25/9 8/20/9
f 8/20/9 2/22/9 4/18/9
