# Blender v2.79 (sub 0) OBJ File: ''
# www.blender.org
mtllib test.mtl
o Cube
v 1.000000 -1.000000 -1.000000
v 1.000000 -1.000000 1.000000
v -1.000000 -1.000000 1.000000
v -1.000000 -1.000000 -1.000000
v 1.000000 1.000000 -0.999999
v 0.999999 1.000000 1.000001
v -1.000000 1.000000 1.000000
v -1.000000 1.000000 -1.000000
vt 0.501953 0.996094
vt 0.253906 0.998047
vt 0.253906 0.744141
vt 0.498047 0.742187
vt 0.255859 0.748047
vt 0.503906 0.746094
vt 0.498047 0.496094
vt 0.250000 0.494141
vt 0.003906 0.500000
vt 0.253906 0.496094
vt 0.253906 0.750000
vt 0.003906 0.750000
vt 0.501953 0.251953
vt 0.250000 0.250000
vt 0.251953 -0.001953
vt 0.505859 -0.003906
vt 0.748047 0.753906
vt 0.498047 0.748047
vt 0.494141 0.496094
vt 0.751953 0.492187
vt 0.250000 0.494141
vt 0.251953 0.248047
vt 0.500000 0.250000
vt 0.501953 0.496094
vn 0.0000 -1.0000 0.0000
vn 0.0000 1.0000 0.0000
vn 1.0000 0.0000 0.0000
vn -0.0000 -0.0000 1.0000
vn -1.0000 -0.0000 -0.0000
vn 0.0000 0.0000 -1.0000
g Cube_Cube_Material
usemtl Material
s off
f 1/1/1 2/2/1 3/3/1 4/4/1
f 5/5/2 8/6/2 7/7/2 6/8/2
f 1/9/3 5/10/3 6/11/3 2/12/3
f 2/13/4 6/14/4 7/15/4 3/16/4
f 3/17/5 7/18/5 8/19/5 4/20/5
f 5/21/6 1/22/6 4/23/6 8/24/6
