# Blender v2.79 (sub 0) OBJ File: ''
# www.blender.org
mtllib untitled.mtl
o CubeC_gren_red
v -9.000000 3.000000 3.000000
v -9.000000 1.000000 1.000000
v -9.000000 1.000000 3.000000
v -9.000000 3.000000 1.000000
v -7.000000 1.000000 1.000000
v -7.000000 3.000000 1.000000
v -7.000000 1.000000 3.000000
v -7.000000 3.000000 3.000000
vt 0.625000 0.000000
vt 0.375000 0.250000
vt 0.375000 0.000000
vt 0.625000 0.250000
vt 0.375000 0.500000
vt 0.625000 0.500000
vt 0.375000 0.750000
vt 0.625000 0.750000
vt 0.375000 1.000000
vt 0.125000 0.750000
vt 0.125000 0.500000
vt 0.875000 0.500000
vt 0.625000 1.000000
vt 0.875000 0.750000
vn -1.0000 0.0000 0.0000
vn 0.0000 0.0000 -1.0000
vn 1.0000 -0.0000 0.0000
vn 0.0000 -0.0000 1.0000
vn 0.0000 -1.0000 -0.0000
vn 0.0000 1.0000 0.0000
usemtl gren_red
s 1
f 1/1/1 2/2/1 3/3/1
f 4/4/2 5/5/2 2/2/2
f 6/6/3 7/7/3 5/5/3
f 8/8/4 3/9/4 7/7/4
f 5/5/5 3/10/5 2/11/5
f 4/12/6 8/8/6 6/6/6
f 1/1/1 4/4/1 2/2/1
f 4/4/2 6/6/2 5/5/2
f 6/6/3 8/8/3 7/7/3
f 8/8/4 1/13/4 3/9/4
f 5/5/5 7/7/5 3/10/5
f 4/12/6 1/14/6 8/8/6
o PlaneB_gren_red
v -1.000000 2.000000 6.000000
v -3.000000 2.000000 4.000000
v -3.000000 2.000000 6.000000
v -1.000000 2.000000 4.000000
vt 0.000000 0.000000
vt 1.000000 0.000000
vt 1.000000 1.000000
vt 1.000000 0.000000
vt 1.000000 1.000000
vn 0.0000 1.0000 0.0000
usemtl gren_red
s 1
f 9/15/7 10/16/7 11/17/7
f 9/15/7 12/18/7 10/19/7
o CubeA_gren_red
v -6.000000 3.000000 3.000000
v -6.000000 1.000000 1.000000
v -6.000000 1.000000 3.000000
v -6.000000 3.000000 1.000000
v -4.000000 1.000000 1.000000
v -4.000000 3.000000 1.000000
v -4.000000 1.000000 3.000000
v -4.000000 3.000000 3.000000
vt 0.000000 0.000000
vt 1.000000 0.000000
vt 1.000000 1.000000
vt 0.000000 0.000000
vt 1.000000 0.000000
vt 1.000000 1.000000
vt 0.000000 0.000000
vt 1.000000 0.000000
vt 1.000000 1.000000
vt 0.000000 0.000000
vt 1.000000 0.000000
vt 1.000000 1.000000
vt 0.000000 0.000000
vt 1.000000 0.000000
vt 1.000000 1.000000
vt 1.000000 0.000000
vt 1.000000 0.000000
vt 1.000000 0.000000
vt 1.000000 1.000000
vn -1.0000 0.0000 0.0000
vn 0.0000 0.0000 -1.0000
vn 1.0000 -0.0000 0.0000
vn 0.0000 -0.0000 1.0000
vn 0.0000 -1.0000 -0.0000
vn 0.0000 1.0000 0.0000
usemtl gren_red
s 1
f 13/20/8 14/21/8 15/22/8
f 16/23/9 17/24/9 14/25/9
f 18/26/10 19/27/10 17/28/10
f 20/29/11 15/30/11 19/31/11
f 17/32/12 15/30/12 14/25/12
f 16/23/13 20/33/13 18/34/13
f 13/20/8 16/35/8 14/25/8
f 16/23/9 18/36/9 17/28/9
f 18/26/10 20/33/10 19/31/10
f 20/29/11 13/37/11 15/22/11
f 17/32/12 19/27/12 15/22/12
f 16/23/13 13/37/13 20/38/13
o CubeB_brown
v -3.000000 3.000000 3.000000
v -3.000000 1.000000 1.000000
v -3.000000 1.000000 3.000000
v -3.000000 3.000000 1.000000
v -1.000000 1.000000 1.000000
v -1.000000 3.000000 1.000000
v -1.000000 1.000000 3.000000
v -1.000000 3.000000 3.000000
vt 0.625000 0.000000
vt 0.375000 0.250000
vt 0.375000 0.000000
vt 0.625000 0.250000
vt 0.375000 0.500000
vt 0.625000 0.500000
vt 0.375000 0.750000
vt 0.625000 0.750000
vt 0.375000 1.000000
vt 0.125000 0.750000
vt 0.125000 0.500000
vt 0.875000 0.500000
vt 0.625000 1.000000
vt 0.875000 0.750000
vn -1.0000 0.0000 0.0000
vn 0.0000 0.0000 -1.0000
vn 1.0000 -0.0000 0.0000
vn 0.0000 -0.0000 1.0000
vn 0.0000 -1.0000 -0.0000
vn 0.0000 1.0000 0.0000
usemtl brown
s 1
f 21/39/14 22/40/14 23/41/14
f 24/42/15 25/43/15 22/40/15
f 26/44/16 27/45/16 25/43/16
f 28/46/17 23/47/17 27/45/17
f 25/43/18 23/48/18 22/49/18
f 24/50/19 28/46/19 26/44/19
f 21/39/14 24/42/14 22/40/14
f 24/42/15 26/44/15 25/43/15
f 26/44/16 28/46/16 27/45/16
f 28/46/17 21/51/17 23/47/17
f 25/43/18 27/45/18 23/48/18
f 24/50/19 21/52/19 28/46/19
o PlaneA_brown
v -4.000000 2.000000 6.000000
v -6.000000 2.000000 4.000000
v -6.000000 2.000000 6.000000
v -4.000000 2.000000 4.000000
vt 0.000000 0.000000
vt 1.000000 0.000000
vt 1.000000 1.000000
vt 1.000000 0.000000
vt 1.000000 1.000000
vn 0.0000 1.0000 0.0000
usemtl brown
s 1
f 29/53/20 30/54/20 31/55/20
f 29/53/20 32/56/20 30/57/20
o Cube
v 1.000000 -1.000000 -1.000000
v 1.000000 -1.000000 1.000000
v -1.000000 -1.000000 1.000000
v -1.000000 -1.000000 -1.000000
v 1.000000 1.000000 -0.999999
v 0.999999 1.000000 1.000001
v -1.000000 1.000000 1.000000
v -1.000000 1.000000 -1.000000
vn 0.0000 -1.0000 0.0000
vn 0.0000 1.0000 0.0000
vn 1.0000 0.0000 0.0000
vn -0.0000 -0.0000 1.0000
vn -1.0000 -0.0000 -0.0000
vn 0.0000 0.0000 -1.0000
usemtl Material
s off
f 33//21 34//21 35//21 36//21
f 37//22 40//22 39//22 38//22
f 33//23 37//23 38//23 34//23
f 34//24 38//24 39//24 35//24
f 35//25 39//25 40//25 36//25
f 37//26 33//26 36//26 40//26
